<svg width="32" height="30" viewBox="0 0 32 30" fill="none" xmlns="http://www.w3.org/2000/svg">
<path d="M32 19.5714C32 17.5714 31.8036 15.5179 31.0536 13.625C28.5714 7.46429 21.2857 6.42858 15.4286 6.42858H11.4286V1.85715C11.4286 1.23215 10.9107 0.714294 10.2857 0.714294C9.98214 0.714294 9.69643 0.839294 9.48214 1.05358L0.339286 10.1964C0.125 10.4107 0 10.6964 0 11C0 11.3036 0.125 11.5893 0.339286 11.8036L9.48214 20.9464C9.69643 21.1607 9.98214 21.2857 10.2857 21.2857C10.9107 21.2857 11.4286 20.7679 11.4286 20.1429V15.5714H15.4286C23.125 15.5714 28.1786 17.0536 28.1786 25.5714C28.1786 26.3036 28.1429 27.0357 28.0893 27.7679C28.0714 28.0536 28 28.375 28 28.6607C28 29 28.2143 29.2857 28.5714 29.2857C28.8214 29.2857 28.9464 29.1607 29.0714 28.9821C29.3393 28.6071 29.5357 28.0357 29.7321 27.625C30.75 25.3393 32 22.0714 32 19.5714Z" fill="white"/>
</svg>
