<svg width="28" height="29" viewBox="0 0 28 29" fill="none" xmlns="http://www.w3.org/2000/svg">
<path d="M6.85714 26V19.1429H20.5714V26H6.85714ZM22.8571 26V18.5714C22.8571 17.625 22.0893 16.8571 21.1429 16.8571H6.28571C5.33929 16.8571 4.57143 17.625 4.57143 18.5714V26H2.28571V3.14284H4.57143V10.5714C4.57143 11.5179 5.33929 12.2857 6.28571 12.2857H16.5714C17.5179 12.2857 18.2857 11.5179 18.2857 10.5714V3.14284C18.6429 3.14284 19.3393 3.42855 19.5893 3.67855L24.6071 8.69641C24.8393 8.92855 25.1429 9.66069 25.1429 9.99998V26H22.8571ZM16 9.42854C16 9.73212 15.7321 9.99998 15.4286 9.99998H12C11.6964 9.99998 11.4286 9.73212 11.4286 9.42854V3.71426C11.4286 3.41069 11.6964 3.14284 12 3.14284H15.4286C15.7321 3.14284 16 3.41069 16 3.71426V9.42854ZM27.4286 9.99998C27.4286 9.05355 26.8929 7.74998 26.2143 7.07141L21.2143 2.07141C20.5357 1.39284 19.2321 0.857117 18.2857 0.857117H1.71429C0.767857 0.857117 0 1.62498 0 2.57141V26.5714C0 27.5179 0.767857 28.2857 1.71429 28.2857H25.7143C26.6607 28.2857 27.4286 27.5179 27.4286 26.5714V9.99998Z" fill="#7E00FF"/>
</svg>
